<svg width="16" height="17" viewBox="0 0 16 17" fill="none" xmlns="http://www.w3.org/2000/svg">
<path d="M16 8.05409C16 9.02746 16 10.0199 16 10.9933C16 13.5316 14.2307 15.612 11.7384 16.0128C11.4911 16.0509 11.2247 16.07 10.9584 16.07C8.97979 16.07 7.02021 16.07 5.04161 16.07C2.60641 16.07 0.589752 14.4096 0.0951018 12.043C0.0190018 11.6994 0 11.3559 0 11.0124C0 9.02746 0 7.04256 0 5.03858C0 2.44295 1.92152 0.305358 4.50891 0.019075C4.69916 -1.04836e-05 4.87038 0 5.06063 0C7.03923 0 8.9988 0 10.9774 0C13.4507 0 15.5434 1.77496 15.9429 4.23699C15.981 4.52327 16 4.80956 16 5.07676C16 6.0692 16 7.06165 16 8.05409ZM7.99049 14.4859C8.97979 14.4859 9.96908 14.4859 10.9774 14.4859C12.8799 14.4668 14.4019 12.9782 14.421 11.0887C14.44 9.04653 14.44 7.00439 14.421 4.98132C14.4019 3.11094 12.8799 1.60318 11.0155 1.60318C8.99881 1.60318 7.00119 1.58409 4.98454 1.60318C3.08204 1.62226 1.57906 3.1491 1.56003 5.05765C1.56003 7.06163 1.56003 9.04653 1.56003 11.0505C1.56003 11.2795 1.57908 11.5277 1.63615 11.7567C1.9786 13.379 3.36741 14.505 5.04161 14.505C6.03091 14.4859 7.00119 14.4859 7.99049 14.4859Z" fill="#0A3649"/>
<path d="M3.97628 8.03501C3.97628 5.802 5.78364 3.98889 8.00956 3.98889C10.2355 3.98889 12.0238 5.802 12.0238 8.03501C12.0238 10.268 10.2165 12.062 7.99055 12.062C5.76463 12.0811 3.95726 10.268 3.97628 8.03501ZM5.55536 8.05411C5.55536 9.40918 6.65879 10.4971 8.00956 10.4971C9.3413 10.4971 10.4447 9.3901 10.4447 8.05411C10.4447 6.69904 9.3413 5.59207 8.00956 5.59207C6.63976 5.59207 5.53633 6.69904 5.55536 8.05411Z" fill="#0A3649"/>
<path d="M12.2712 4.65688C11.7576 4.65688 11.3581 4.23697 11.3581 3.74075C11.3581 3.24452 11.7766 2.82465 12.2712 2.82465C12.7849 2.82465 13.1844 3.24452 13.1844 3.74075C13.1654 4.25606 12.7659 4.65688 12.2712 4.65688Z" fill="#0A3649"/>
</svg>
