<svg width="7" height="17" viewBox="0 0 7 17" fill="none" xmlns="http://www.w3.org/2000/svg">
<path d="M6.96246 0.0357211C6.96246 0.879631 6.96246 1.70346 6.96246 2.52728C6.96246 2.70811 6.8874 2.7483 6.73727 2.7483C6.28687 2.7483 5.81768 2.7483 5.36728 2.7483C4.87934 2.7483 4.63539 2.98942 4.61662 3.53193C4.59785 3.95389 4.61662 4.37584 4.61662 4.81789C5.42359 4.81789 6.19303 4.81789 7 4.81789C6.90617 5.90292 6.81232 6.94774 6.71848 8.03277C5.98658 8.03277 5.25469 8.03277 4.50403 8.03277C4.50403 10.7252 4.50403 13.3976 4.50403 16.07C3.49062 16.07 2.51474 16.07 1.50134 16.07C1.50134 13.3976 1.50134 10.7453 1.50134 8.03277C0.975874 8.03277 0.506701 8.03277 0 8.03277C0 6.94774 0 5.90292 0 4.81789C0.487934 4.81789 0.957118 4.81789 1.48259 4.81789C1.48259 4.65714 1.48259 4.51648 1.48259 4.39592C1.50135 3.79313 1.46381 3.15014 1.55764 2.56744C1.78284 1.08055 2.64611 0.176373 4.05361 0.0357211C5.01072 -0.0446513 5.96782 0.0357211 6.96246 0.0357211Z" fill="#B48E77"/>
</svg>
