<svg width="101" height="33" viewBox="0 0 101 33" fill="none" xmlns="http://www.w3.org/2000/svg">
<path d="M71.3829 29.9963C70.4247 30.4257 68.9572 30.5015 67.8349 30.5015C66.7127 30.5015 63.8639 30.5015 63.8639 30.5015V20.5504H68.1457C68.4824 20.5504 68.7759 20.5672 69.0349 20.6009C69.3802 20.643 69.6823 20.7356 69.9413 20.9545C70.2779 21.2491 70.3729 21.4596 70.3729 21.7711V21.9142H70.7614V18.4962H70.3729V18.6393C70.3729 18.934 70.2779 19.1613 69.9413 19.4559C69.6823 19.6748 69.3802 19.7674 69.0349 19.8095C68.7672 19.8432 68.4565 19.86 68.1025 19.86H63.8639V12.6872C63.8639 12.6872 67.4983 12.6872 68.0076 12.6872C68.5255 12.6872 70.2693 12.6114 71.0031 13.1586C71.452 13.4365 71.5728 14.0258 71.5815 14.0258H71.8664L72.4188 11.7527H63.0697V11.8453L63.0179 11.879C61.7317 12.7882 60.7994 13.4112 60.2469 13.7227C60.2641 13.9079 60.2641 14.1184 60.2641 14.3373V28.8429C60.2641 29.1881 60.2469 29.4912 60.2123 29.7522C60.1692 30.0889 60.0742 30.3836 59.8498 30.6362C59.5476 30.9645 59.211 31.0487 59.0124 31.0571H58.8657V31.4359H72.2807L73.1267 28.6241H72.8418C72.8418 28.6241 72.4275 29.5249 71.3829 29.9963Z" fill="#B48E77"/>
<path d="M15.5818 13.9079C12.8367 11.8453 9.90159 11.7527 7.69164 11.7527C7.14779 11.7527 0 11.7527 0 11.7527V12.1315H0.146754C0.336671 12.1484 0.681975 12.2242 0.984116 12.5525C1.20856 12.8051 1.30352 13.0997 1.34669 13.4365C1.38122 13.6975 1.39848 14.0005 1.39848 14.3457V28.8514C1.39848 29.1965 1.38122 29.4996 1.34669 29.7606C1.30352 30.0973 1.20856 30.392 0.984116 30.6446C0.681975 30.9729 0.345304 31.0571 0.146754 31.0655H0V31.4444C0 31.4444 6.55214 31.4444 7.22548 31.4444C10.4541 31.4444 12.9748 31.4444 15.9876 28.9861C19.0521 26.4773 19.3111 24.1873 19.3111 21.6027C19.3111 19.0182 18.7759 16.3157 15.5818 13.9079ZM15.3142 21.2997C15.3142 25.1134 14.356 26.553 13.0266 28.262C11.6454 30.0468 8.77072 30.2994 7.23412 30.2994C6.26727 30.2994 5.52486 30.2994 4.99827 30.2994V12.8892C5.62845 12.8892 6.57804 12.8892 7.70028 12.8977C9.72894 12.8892 11.0411 13.5122 11.0411 13.5122C15.4351 15.5243 15.3142 21.2997 15.3142 21.2997Z" fill="#B48E77"/>
<path d="M45.8736 21.8469C45.8736 21.8469 45.8822 24.5493 45.8477 25.1302C45.8218 25.6269 45.7786 25.9384 45.7182 26.2584C45.6837 26.4267 45.6319 26.7214 45.511 27.0834C45.4161 27.3696 45.2521 27.8748 44.8895 28.4304C44.7945 28.5735 44.4061 29.146 43.7327 29.6596C42.5673 30.5435 41.307 30.6867 40.9271 30.7288C38.6568 30.9561 36.2396 29.8027 35.2037 28.0095C34.8584 27.4033 34.7548 27.0076 34.634 26.5362C34.3232 25.3407 34.3146 23.3875 34.3146 23.3875V14.3457C34.3146 14.0005 34.3318 13.6975 34.3664 13.4365C34.4095 13.0997 34.5045 12.8051 34.7289 12.5525C35.0311 12.2242 35.3677 12.14 35.5576 12.1315H35.7044V11.7527H29.3163V12.1315H29.463C29.653 12.1484 29.9983 12.2242 30.3004 12.5525C30.5248 12.8051 30.6198 13.0997 30.663 13.4365C30.6975 13.6975 30.7148 14.0005 30.7148 14.3457V23.396C30.7148 25.4586 30.8874 26.915 31.5608 28.1694C31.7593 28.5399 32.1996 29.2302 32.9506 29.9206C35.9116 32.6398 40.271 31.9579 40.8494 31.8569C41.6954 31.7138 43.2752 31.4191 44.6305 30.2489C45.5542 29.4491 46.0463 28.5314 46.1153 28.3967C46.4002 27.8495 46.5383 27.3865 46.6333 27.0329C46.7973 26.4688 46.9613 25.6775 46.9699 24.6925V21.8469V15.2465C46.6246 15.196 46.2621 15.1371 45.865 15.0613V21.8469H45.8736Z" fill="#B48E77"/>
<path d="M44.4752 12.1315H44.6219C44.8118 12.1484 45.1571 12.2242 45.4593 12.5525C45.6837 12.8051 45.7787 13.0997 45.8218 13.4365C45.8218 13.4365 45.8218 13.4449 45.8218 13.4533C46.5642 12.9987 47.3153 12.4346 48.075 11.7527H44.4752V12.1315Z" fill="#B48E77"/>
<path d="M99.2058 11.7527H83.693L82.9075 16.1978H83.2528C83.2528 16.1978 83.2528 15.0445 84.6858 13.7816C85.6785 12.9061 86.9821 12.7124 87.6986 12.6788H89.6582V28.8093C89.6495 29.045 89.6409 29.5585 89.615 29.7438C89.5718 30.0805 89.4769 30.3752 89.2524 30.6277C88.9503 30.9561 88.605 31.0403 88.4151 31.0487H88.2597V31.4275H94.6564V31.0487H94.5097C94.3198 31.0318 93.9745 30.9561 93.6723 30.6277C93.4479 30.3752 93.3529 30.0805 93.3097 29.7438C93.2752 29.4828 93.2579 29.1544 93.2579 28.8093V12.6872H95.2176C95.9254 12.7209 97.2376 12.9145 98.2303 13.7901C99.6633 15.0529 99.6633 16.2063 99.6633 16.2063H100.009L99.2058 11.7527Z" fill="#B48E77"/>
<path d="M53.8069 8.19995C57.8384 7.06341 60.9893 5.54801 63.2769 3.67061C64.5459 2.62668 65.1761 1.72586 65.1761 0.968166C65.1761 0.328335 64.7272 0 63.838 0C62.1547 0 60.126 0.883978 57.7348 2.66035C55.7147 4.15891 53.7897 6.00263 51.9509 8.18311C50.9237 8.41042 50.0518 8.52828 49.3353 8.52828C47.8246 8.52828 46.6592 8.23362 45.8304 7.63589C45.1312 7.11392 44.7773 6.49092 44.7773 5.75007C44.7773 4.10839 45.8909 2.7698 48.1094 1.73428C50.069 0.816627 52.3135 0.353591 54.8429 0.353591V0C51.761 0 49.1799 0.538806 47.0994 1.608C45.019 2.67719 43.9831 4.01579 43.9831 5.61537C43.9831 6.55828 44.4233 7.34123 45.3038 7.96422C46.2362 8.61247 47.4793 8.94081 49.0331 8.94081C49.7669 8.94081 50.6043 8.86504 51.5538 8.70508C49.3525 11.4496 47.1944 13.2849 45.0794 14.2278C43.2493 13.7648 41.7817 13.5291 40.6768 13.5291C38.933 13.5291 38.0611 13.8322 38.0611 14.4383C38.0611 15.036 39.0107 15.3307 40.9012 15.3307C41.8076 15.3307 42.6105 15.2802 43.327 15.1792C43.8881 15.095 44.5269 14.9519 45.2434 14.7414C47.1167 15.1371 48.5324 15.3307 49.4993 15.3307C50.6129 15.3307 51.7092 15.0613 52.7797 14.5309C53.5048 14.1689 54.5407 13.4954 55.896 12.5188C55.827 12.7377 55.7838 12.9734 55.7838 13.2176C55.7838 14.1689 56.2759 14.6404 57.2514 14.6404C58.2786 14.6404 59.3922 14.3204 60.5663 13.689C61.1101 13.4028 62.0597 12.7714 63.4237 11.8032V11.7611H62.6726C60.3418 13.4196 58.5549 14.2531 57.3204 14.2531C56.7766 14.2531 56.5089 14.1016 56.5089 13.8069C56.5089 13.6554 56.6384 13.4112 56.8888 13.066C57.1478 12.7209 57.424 12.4346 57.7175 12.2157C59.2196 12.1736 60.385 11.9716 61.2223 11.6264C61.9993 11.2981 62.3877 10.894 62.3877 10.4141C62.3877 9.92581 62.0252 9.67325 61.3 9.67325C60.3418 9.67325 59.28 9.94265 58.1146 10.473C57.6226 10.7003 57.1996 10.9445 56.8629 11.2139C54.8342 12.7377 53.3494 13.7395 52.4171 14.2278C51.4848 14.7161 50.5438 14.9603 49.5942 14.9603C48.6015 14.9603 47.3843 14.7919 45.9254 14.4467C47.7469 13.6722 49.223 12.8387 50.3539 11.9295C51.4503 11.0455 52.5984 9.80795 53.8069 8.19995ZM58.5721 2.67719C59.2541 2.11313 60.0569 1.608 60.9806 1.1618C62.0856 0.622994 63.0266 0.36201 63.8035 0.36201C64.4337 0.36201 64.7444 0.5809 64.7444 1.01026C64.7444 1.58274 64.0279 2.44988 62.5949 3.60326C60.5404 5.26177 57.7607 6.60879 54.2386 7.64431C55.8183 5.41331 57.2686 3.7548 58.5721 2.67719ZM40.9444 14.9434C39.3819 14.9434 38.605 14.7666 38.605 14.4215C38.605 14.312 38.7603 14.2026 39.0797 14.1016C39.4509 13.9837 39.9171 13.9248 40.4869 13.9248C41.4623 13.9248 42.74 14.1184 44.3111 14.4972C43.3356 14.7919 42.2134 14.9434 40.9444 14.9434ZM59.9706 10.4983C60.5749 10.1868 61.0583 10.0353 61.4036 10.0353C61.6712 10.0353 61.8007 10.1194 61.8007 10.2962C61.8007 10.5572 61.49 10.8435 60.8598 11.155C60.126 11.5086 59.2541 11.7022 58.2441 11.7359C58.7362 11.256 59.3059 10.8435 59.9706 10.4983Z" fill="#B48E77"/>
</svg>
