<svg width="180" height="59" viewBox="0 0 180 59" fill="none" xmlns="http://www.w3.org/2000/svg">
<g clip-path="url(#clip0)">
<path d="M128.489 55.3057C126.765 56.0973 124.123 56.237 122.103 56.237C120.083 56.237 114.955 56.237 114.955 56.237V37.8898H122.662C123.268 37.8898 123.797 37.9208 124.263 37.9829C124.884 38.0605 125.428 38.2313 125.894 38.6348C126.5 39.1781 126.671 39.5662 126.671 40.1405V40.4044H127.371V34.1023H126.671V34.3662C126.671 34.9095 126.5 35.3286 125.894 35.8719C125.428 36.2755 124.884 36.4462 124.263 36.5238C123.781 36.5859 123.222 36.6169 122.585 36.6169H114.955V23.392C114.955 23.392 121.497 23.392 122.414 23.392C123.346 23.392 126.485 23.2523 127.806 24.2612C128.614 24.7735 128.831 25.86 128.847 25.86H129.359L130.354 21.669H113.526V21.8398L113.432 21.9019C111.117 23.5783 109.439 24.7269 108.444 25.3012C108.475 25.6427 108.475 26.0308 108.475 26.4344V53.1792C108.475 53.8156 108.444 54.3744 108.382 54.8556C108.305 55.4765 108.134 56.0197 107.73 56.4854C107.186 57.0908 106.58 57.246 106.222 57.2615H105.958V57.96H130.105L131.628 52.7756H131.115C131.115 52.7756 130.369 54.4365 128.489 55.3057Z" fill="#B48E77"/>
<path d="M28.0473 25.6427C23.106 21.8398 17.8229 21.669 13.845 21.669C12.866 21.669 0 21.669 0 21.669V22.3675H0.264157C0.606008 22.3986 1.22756 22.5383 1.77141 23.1436C2.17541 23.6093 2.34634 24.1526 2.42403 24.7735C2.48619 25.2547 2.51727 25.8135 2.51727 26.4499V53.1947C2.51727 53.8311 2.48619 54.3899 2.42403 54.8711C2.34634 55.492 2.17541 56.0353 1.77141 56.5009C1.22756 57.1063 0.621547 57.2615 0.264157 57.277H0V57.9755C0 57.9755 11.7939 57.9755 13.0059 57.9755C18.8173 57.9755 23.3546 57.9755 28.7776 53.443C34.2939 48.8174 34.76 44.5954 34.76 39.83C34.76 35.0647 33.7966 30.0821 28.0473 25.6427ZM27.5656 39.2712C27.5656 46.3028 25.8408 48.9571 23.4479 52.1081C20.9617 55.3988 15.7873 55.8645 13.0214 55.8645C11.2811 55.8645 9.94475 55.8645 8.99689 55.8645V23.7645C10.1312 23.7645 11.8405 23.7645 13.8605 23.7801C17.5121 23.7645 19.874 24.9132 19.874 24.9132C27.7831 28.623 27.5656 39.2712 27.5656 39.2712Z" fill="#B48E77"/>
<path d="M82.5725 40.2802C82.5725 40.2802 82.5881 45.2628 82.5259 46.3339C82.4793 47.2497 82.4016 47.824 82.2928 48.4138C82.2307 48.7243 82.1374 49.2676 81.9199 49.935C81.749 50.4628 81.4537 51.3941 80.8011 52.4186C80.6302 52.6825 79.9309 53.738 78.7189 54.6848C76.6212 56.3147 74.3526 56.5785 73.6689 56.6562C69.5822 57.0753 65.2314 54.9487 63.3667 51.6425C62.7452 50.5249 62.5587 49.7953 62.3412 48.9261C61.7818 46.7219 61.7662 43.1208 61.7662 43.1208V26.4499C61.7662 25.8135 61.7973 25.2547 61.8595 24.7735C61.9372 24.1526 62.1081 23.6093 62.5121 23.1436C63.0559 22.5383 63.6619 22.3831 64.0038 22.3675H64.268V21.669H52.7693V22.3675H53.0335C53.3753 22.3986 53.9969 22.5383 54.5407 23.1436C54.9448 23.6093 55.1157 24.1526 55.1934 24.7735C55.2555 25.2547 55.2866 25.8135 55.2866 26.4499V43.1363C55.2866 46.9392 55.5974 49.6246 56.8094 51.9374C57.1668 52.6204 57.9593 53.8932 59.3111 55.166C64.6409 60.1797 72.4879 58.9224 73.529 58.7361C75.0518 58.4723 77.8954 57.929 80.3349 55.7714C81.9976 54.2968 82.8833 52.6049 83.0076 52.3565C83.5204 51.3475 83.769 50.4938 83.9399 49.8419C84.2352 48.8019 84.5304 47.3428 84.5459 45.5267V40.2802V28.1108C83.9244 28.0176 83.2718 27.909 82.557 27.7693V40.2802H82.5725Z" fill="#B48E77"/>
<path d="M80.0553 22.3675H80.3194C80.6613 22.3986 81.2828 22.5383 81.8267 23.1436C82.2307 23.6093 82.4016 24.1526 82.4793 24.7735C82.4793 24.7735 82.4793 24.789 82.4793 24.8045C83.8156 23.9663 85.1675 22.9263 86.5349 21.669H80.0553V22.3675Z" fill="#B48E77"/>
<path d="M178.57 21.669H150.647L149.233 29.8648H149.855C149.855 29.8648 149.855 27.7382 152.434 25.4099C154.221 23.7956 156.568 23.4386 157.857 23.3765H161.385V53.1171C161.369 53.5517 161.354 54.4986 161.307 54.84C161.229 55.4609 161.058 56.0042 160.654 56.4699C160.11 57.0753 159.489 57.2305 159.147 57.246H158.867V57.9445H170.382V57.246H170.117C169.776 57.215 169.154 57.0753 168.61 56.4699C168.206 56.0042 168.035 55.4609 167.958 54.84C167.895 54.3589 167.864 53.7535 167.864 53.1171V23.392H171.392C172.666 23.4541 175.028 23.8111 176.815 25.4254C179.394 27.7538 179.394 29.8803 179.394 29.8803H180.016L178.57 21.669Z" fill="#B48E77"/>
<path d="M96.8526 15.1187C104.109 13.0232 109.781 10.2292 113.898 6.76769C116.183 4.84294 117.317 3.18206 117.317 1.78506C117.317 0.605367 116.509 0 114.908 0C111.878 0 108.227 1.62983 103.923 4.90503C100.287 7.66798 96.8215 11.0674 93.5117 15.0876C91.6626 15.5067 90.0932 15.724 88.8035 15.724C86.0843 15.724 83.9865 15.1807 82.4948 14.0787C81.2362 13.1163 80.5991 11.9676 80.5991 10.6017C80.5991 7.57485 82.6036 5.10681 86.597 3.19758C90.1243 1.50566 94.1644 0.651934 98.7172 0.651934V0C93.1699 0 88.5238 0.993423 84.779 2.96475C81.0342 4.93607 79.1695 7.4041 79.1695 10.3533C79.1695 12.0918 79.962 13.5354 81.547 14.684C83.2251 15.8792 85.4627 16.4846 88.2597 16.4846C89.5805 16.4846 91.0877 16.3449 92.797 16.05C88.8346 21.1102 84.9499 24.4941 81.143 26.2326C77.8488 25.3788 75.2072 24.9442 73.2182 24.9442C70.0794 24.9442 68.51 25.503 68.51 26.6206C68.51 27.7227 70.2193 28.266 73.6222 28.266C75.2538 28.266 76.6989 28.1729 77.9886 27.9866C78.9986 27.8314 80.1485 27.5675 81.4382 27.1794C84.8101 27.909 87.3584 28.266 89.0988 28.266C91.1032 28.266 93.0767 27.7693 95.0035 26.7914C96.3087 26.1239 98.1733 24.8821 100.613 23.0816C100.489 23.4851 100.411 23.9198 100.411 24.3699C100.411 26.1239 101.297 26.9932 103.052 26.9932C104.902 26.9932 106.906 26.4033 109.019 25.2391C109.998 24.7114 111.708 23.5472 114.163 21.7622V21.6846H112.811C108.615 24.7424 105.399 26.2791 103.177 26.2791C102.198 26.2791 101.716 25.9997 101.716 25.4565C101.716 25.1771 101.949 24.7269 102.4 24.0905C102.866 23.4541 103.363 22.9263 103.892 22.5228C106.595 22.4451 108.693 22.0726 110.2 21.4362C111.599 20.8308 112.298 20.0858 112.298 19.201C112.298 18.3007 111.645 17.835 110.34 17.835C108.615 17.835 106.704 18.3318 104.606 19.3097C103.721 19.7288 102.959 20.1789 102.353 20.6756C98.7017 23.4851 96.029 25.3323 94.3508 26.2326C92.6727 27.1329 90.9789 27.583 89.2697 27.583C87.4827 27.583 85.2918 27.2726 82.6657 26.6362C85.9444 25.2081 88.6015 23.6714 90.6371 21.995C92.6105 20.3652 94.6771 18.0834 96.8526 15.1187ZM105.43 4.93607C106.657 3.89608 108.103 2.96475 109.765 2.14207C111.754 1.14865 113.448 0.667456 114.846 0.667456C115.981 0.667456 116.54 1.07103 116.54 1.86267C116.54 2.91818 115.25 4.51697 112.671 6.64352C108.973 9.7014 103.969 12.185 97.6295 14.0942C100.473 9.98079 103.084 6.92292 105.43 4.93607ZM73.6999 27.552C70.8874 27.552 69.489 27.226 69.489 26.5896C69.489 26.3878 69.7687 26.186 70.3436 25.9997C71.0117 25.7824 71.8508 25.6738 72.8764 25.6738C74.6323 25.6738 76.932 26.0308 79.76 26.7293C78.0041 27.2726 75.9841 27.552 73.6999 27.552ZM107.947 19.3562C109.035 18.7819 109.905 18.5025 110.527 18.5025C111.008 18.5025 111.241 18.6577 111.241 18.9837C111.241 19.4649 110.682 19.9926 109.548 20.567C108.227 21.2189 106.657 21.5759 104.839 21.638C105.725 20.7532 106.751 19.9926 107.947 19.3562Z" fill="white"/>
</g>
<defs>
<clipPath id="clip0">
<rect width="180" height="59" fill="white"/>
</clipPath>
</defs>
</svg>
