<svg width="137" height="45" viewBox="0 0 137 45" fill="none" xmlns="http://www.w3.org/2000/svg">
<path d="M5.6575 43.7C3.5675 43.7 1.6175 43.79 0.0975 43.79C-0.0325 43.79 -0.0325 43.27 0.0975 43.27C2.7475 43.27 3.2675 42.79 3.2675 40.27V20.15C3.2675 17.67 2.7875 17.15 0.1875 17.15C0.0175 17.15 0.0175 16.63 0.1875 16.63C1.7075 16.63 3.5775 16.76 5.6575 16.76C7.7875 16.76 10.5675 16.54 12.3475 16.54C21.3375 16.54 27.2975 22.27 27.2975 29.75C27.2975 38.44 20.7375 43.96 12.9575 43.96C11.0875 43.96 7.9575 43.7 5.6575 43.7ZM21.9475 30.71C21.9475 23.32 18.3875 17.5 12.7775 17.5C9.3875 17.5 8.0875 17.89 8.0875 20.24V39.79C8.0875 41.96 8.8675 42.96 12.5175 42.96C17.9975 42.96 21.9475 38.66 21.9475 30.71Z" fill="#A98E7D"/>
<path d="M58.8775 17.15C58.7475 17.15 58.7475 16.63 58.8775 16.63C60.3075 16.63 61.7875 16.76 63.6175 16.76C65.1775 16.76 66.6975 16.63 68.0075 16.63C68.1375 16.63 68.1375 17.15 68.0075 17.15C65.7075 17.15 64.3975 19.11 64.3975 22.19V34.27C64.3975 40.44 60.0575 44.39 53.5775 44.39C47.1875 44.39 42.5875 40.61 42.5875 34.18V20.15C42.5875 17.67 42.1075 17.15 39.5075 17.15C39.3375 17.15 39.3375 16.63 39.5075 16.63C41.0275 16.63 42.8975 16.76 44.9775 16.76C47.1475 16.76 49.0175 16.63 50.4975 16.63C50.6675 16.63 50.6675 17.15 50.4975 17.15C47.8875 17.15 47.4175 17.76 47.4175 20.23V32.66C47.4175 39.78 50.4575 42.78 55.2375 42.78C60.0175 42.78 62.9275 39.78 62.9275 34.31V22.19C62.9175 19.11 61.4375 17.15 58.8775 17.15Z" fill="#A98E7D"/>
<path d="M99.4075 36.96C99.1875 38.65 98.9775 41.17 98.9775 43.13C98.9775 43.61 98.8475 43.78 98.3275 43.78H79.1275C78.9575 43.78 78.9575 43.26 79.1275 43.26C81.7775 43.26 82.2075 42.78 82.2075 40.26V20.15C82.2075 17.67 81.7775 17.15 79.1275 17.15C78.9575 17.15 78.9575 16.63 79.1275 16.63H97.5475C97.8975 16.63 97.9775 16.76 97.9775 17.02L98.0675 22.8C98.0675 22.93 97.6375 23.02 97.5475 22.84C96.5875 19.45 94.4675 17.89 90.8575 17.89H89.5575C87.8175 17.89 87.0375 18.63 87.0375 20.19V29.05H90.6475C94.0775 29.05 95.8575 27.79 95.8575 25.75C95.8575 25.58 96.3375 25.58 96.3375 25.75C96.3375 27.66 96.2975 28.49 96.2975 29.66C96.2975 31.14 96.4275 32.44 96.4275 34.09C96.4275 34.22 95.9075 34.22 95.9075 34.09C95.9075 31.74 94.0875 30.27 90.6075 30.27H87.0475V40.09C87.0475 41.78 87.6575 42.57 89.0475 42.57H90.4775C94.9975 42.57 97.6475 40.79 98.9075 36.88C98.9275 36.7 99.4075 36.83 99.4075 36.96Z" fill="#A98E7D"/>
<path d="M112.228 24.36C112.188 24.53 111.747 24.49 111.747 24.32C111.917 22.71 112.357 17.8 112.357 15.67C112.357 15.41 112.837 15.37 112.837 15.67C112.837 16.54 114.487 16.63 115.317 16.63C117.797 16.72 120.788 16.76 124.048 16.76C128.088 16.76 130.177 16.63 132.427 16.63C134.517 16.63 135.508 16.46 135.818 15.54C135.858 15.32 136.337 15.32 136.337 15.54C136.117 17.45 135.908 22.84 135.908 24.32C135.908 24.49 135.477 24.49 135.427 24.32C134.557 19.76 131.997 17.63 128.607 17.63C126.867 17.63 126.517 18.24 126.517 20.24V40.27C126.517 42.79 126.998 43.27 130.128 43.27C130.298 43.27 130.298 43.79 130.128 43.79C128.478 43.79 126.478 43.7 124.048 43.7C121.748 43.7 119.657 43.79 118.007 43.79C117.837 43.79 117.837 43.27 118.007 43.27C121.047 43.27 121.658 42.79 121.658 40.27V20.15C121.658 18.24 121.308 17.63 119.658 17.63C116.088 17.63 113.658 20.11 112.228 24.36Z" fill="#A98E7D"/>
<path d="M75.8275 15.93V16.77C73.2875 18.72 71.4075 20.01 70.1675 20.65C68.6775 21.41 67.1575 21.79 65.6075 21.79C64.2675 21.79 62.2975 21.51 59.6975 20.95C58.7075 21.25 57.8275 21.46 57.0475 21.58C56.0575 21.72 54.9375 21.8 53.6875 21.8C51.0675 21.8 49.7475 21.38 49.7475 20.53C49.7475 19.67 50.9575 19.24 53.3775 19.24C54.9075 19.24 56.9475 19.57 59.4775 20.23C62.4075 18.89 65.4075 16.27 68.4575 12.38C67.1475 12.6 65.9775 12.72 64.9675 12.72C62.8175 12.72 61.0875 12.26 59.7875 11.33C58.5675 10.44 57.9475 9.33 57.9475 7.99C57.9475 5.72 59.3875 3.82 62.2675 2.29C65.1675 0.76 68.7475 0 73.0175 0V0.51C69.5075 0.51 66.3875 1.16 63.6575 2.46C60.5775 3.93 59.0375 5.84 59.0375 8.18C59.0375 9.23 59.5275 10.12 60.4975 10.86C61.6475 11.71 63.2675 12.13 65.3675 12.13C66.3575 12.13 67.5675 11.97 68.9975 11.64C71.5475 8.54 74.2275 5.92 77.0275 3.79C80.3475 1.26 83.1675 0 85.4975 0C86.7375 0 87.3575 0.46 87.3575 1.39C87.3575 2.46 86.4775 3.74 84.7275 5.23C81.5575 7.9 77.1775 10.05 71.5875 11.67C69.9075 13.96 68.3175 15.72 66.8075 16.95C65.2275 18.24 63.1775 19.43 60.6575 20.53C62.6775 21.02 64.3775 21.26 65.7475 21.26C67.0575 21.26 68.3675 20.91 69.6675 20.22C70.9575 19.53 73.0175 18.1 75.8275 15.93ZM53.7375 21.26C55.5075 21.26 57.0675 21.05 58.4075 20.63C56.2275 20.09 54.4575 19.82 53.0975 19.82C52.3175 19.82 51.6675 19.9 51.1475 20.07C50.7075 20.21 50.4875 20.37 50.4875 20.52C50.4775 21.01 51.5675 21.26 53.7375 21.26ZM86.7575 1.42C86.7575 0.81 86.3175 0.5 85.4475 0.5C84.3675 0.5 83.0675 0.88 81.5275 1.64C80.2475 2.28 79.1275 3 78.1875 3.8C76.3775 5.34 74.3675 7.69 72.1675 10.87C77.0475 9.4 80.9075 7.48 83.7575 5.12C85.7575 3.47 86.7575 2.24 86.7575 1.42Z" fill="white"/>
<path d="M84.5275 14.79C84.5275 15.48 83.9875 16.05 82.9175 16.51C81.7475 17.01 80.1275 17.29 78.0475 17.35C77.6375 17.66 77.2475 18.07 76.8975 18.56C76.5475 19.05 76.3675 19.41 76.3675 19.62C76.3675 20.04 76.7475 20.26 77.4975 20.26C79.3875 20.26 82.2075 18.82 85.9675 15.93V16.77C84.0775 18.14 82.7575 19.04 82.0075 19.45C80.3675 20.35 78.8375 20.8 77.4075 20.8C76.0475 20.8 75.3775 20.13 75.3775 18.78C75.3775 17.18 76.4575 15.88 78.6075 14.88C80.2275 14.12 81.7075 13.74 83.0275 13.74C84.0275 13.74 84.5275 14.09 84.5275 14.79ZM78.7775 16.7C80.1775 16.65 81.3875 16.38 82.4075 15.88C83.2775 15.44 83.7175 15.04 83.7175 14.66C83.7175 14.41 83.5375 14.29 83.1675 14.29C82.6775 14.29 82.0175 14.51 81.1775 14.95C80.2475 15.43 79.4575 16.01 78.7775 16.7Z" fill="white"/>
</svg>

