<?xml version="1.0" encoding="utf-8"?>
<!-- Generator: Adobe Illustrator 23.1.1, SVG Export Plug-In . SVG Version: 6.00 Build 0)  -->
<svg version="1.1" id="圖層_1" xmlns="http://www.w3.org/2000/svg" xmlns:xlink="http://www.w3.org/1999/xlink" x="0px" y="0px"
	 viewBox="0 0 242.16 31.18" style="enable-background:new 0 0 242.16 31.18;" xml:space="preserve">
<style type="text/css">
	.st0{fill:#B79078;}
</style>
<g>
	<path class="st0" d="M91.94,19.76c-0.07,0.55-0.14,1.36-0.14,1.99c0,0.15-0.04,0.21-0.21,0.21H85.4c-0.06,0-0.06-0.17,0-0.17
		c0.85,0,0.99-0.15,0.99-0.97v-6.49c0-0.8-0.14-0.97-0.99-0.97c-0.06,0-0.06-0.17,0-0.17h5.94c0.11,0,0.14,0.04,0.14,0.13l0.03,1.86
		c0,0.04-0.14,0.07-0.17,0.01c-0.31-1.09-0.99-1.6-2.16-1.6h-0.42c-0.56,0-0.81,0.24-0.81,0.74v2.86h1.16
		c1.11,0,1.68-0.41,1.68-1.06c0-0.06,0.15-0.06,0.15,0c0,0.62-0.01,0.88-0.01,1.26c0,0.48,0.04,0.9,0.04,1.43
		c0,0.04-0.17,0.04-0.17,0c0-0.76-0.59-1.23-1.71-1.23h-1.15v3.17c0,0.55,0.2,0.8,0.64,0.8h0.46c1.46,0,2.31-0.57,2.72-1.83
		C91.79,19.68,91.94,19.72,91.94,19.76z"/>
	<path class="st0" d="M99.72,16.92c1.05,0.67,2.13,1.37,2.13,2.72c0,1.48-1.3,2.49-3.03,2.49c-0.84,0-1.92-0.28-2.24-0.56
		c-0.08-0.06-0.14-0.1-0.14-0.27l-0.04-2.23c-0.01-0.08,0.13-0.1,0.15-0.03c0.57,1.18,1.3,2.73,2.63,2.73
		c0.64,0,1.29-0.28,1.29-1.33c0-1.32-1.02-1.98-2.02-2.63c-0.98-0.64-1.95-1.26-1.95-2.51c0-1.57,1.54-2.25,2.94-2.25
		c0.67,0,1.41,0.14,1.81,0.31c0.18,0.08,0.21,0.17,0.21,0.28v2.06c0,0.06-0.13,0.1-0.15,0.04c-0.22-0.46-0.74-2.38-2.24-2.38
		c-0.7,0-1.27,0.41-1.27,1.26C97.8,15.69,98.74,16.29,99.72,16.92z"/>
	<path class="st0" d="M106.1,15.7c-0.01,0.06-0.15,0.04-0.15-0.01c0.06-0.52,0.2-2.1,0.2-2.79c0-0.08,0.15-0.1,0.15,0
		c0,0.28,0.53,0.31,0.8,0.31c0.8,0.03,1.76,0.04,2.82,0.04c1.3,0,1.98-0.04,2.7-0.04c0.67,0,0.99-0.06,1.09-0.35
		c0.01-0.07,0.17-0.07,0.17,0c-0.07,0.62-0.14,2.35-0.14,2.83c0,0.06-0.14,0.06-0.15,0c-0.28-1.47-1.11-2.16-2.2-2.16
		c-0.56,0-0.67,0.2-0.67,0.84v6.46c0,0.81,0.15,0.97,1.16,0.97c0.06,0,0.06,0.17,0,0.17c-0.53,0-1.18-0.03-1.96-0.03
		c-0.74,0-1.41,0.03-1.95,0.03c-0.06,0-0.06-0.17,0-0.17c0.98,0,1.18-0.15,1.18-0.97v-6.49c0-0.62-0.11-0.81-0.64-0.81
		C107.35,13.53,106.56,14.33,106.1,15.7z"/>
	<path class="st0" d="M123.65,21.57c2.37-2.97,3.33-4.22,3.33-5.87c0-1.36-0.64-1.75-1.44-1.75c-0.88,0-1.47,0.48-1.64,1.23
		c-0.01,0.04-0.17,0.01-0.15-0.04c0.2-1.26,1.18-2.09,2.56-2.09c1.43,0,2.2,0.9,2.2,2.17c0,2.23-2.31,3.78-3.45,5.29
		c-0.04,0.07-0.01,0.1,0.07,0.1c2.84,0,3.4-0.14,3.4-0.99c0-0.06,0.17-0.06,0.17,0v2.19c0,0.07-0.04,0.15-0.13,0.15h-4.75
		C123.74,21.96,123.58,21.65,123.65,21.57z"/>
	<path class="st0" d="M132.81,17.58c0-2.86,1.12-4.54,3.03-4.54c1.85,0,2.94,1.69,2.94,4.58c0,2.83-1.09,4.52-2.97,4.52
		C133.93,22.14,132.81,20.44,132.81,17.58z M137.13,17.79c0-3.18-0.41-4.45-1.44-4.45c-0.88,0-1.23,1.18-1.23,4.15
		c0,3.12,0.45,4.37,1.53,4.37C136.8,21.85,137.13,20.69,137.13,17.79z"/>
	<path class="st0" d="M142.72,21.79c1.11,0,1.5-0.15,1.5-0.97V15.9c0-0.7-0.15-1.05-0.49-1.05c-0.24,0-0.56,0.15-0.99,0.45
		c-0.06,0.04-0.15-0.1-0.11-0.13l2.87-2.06c0.03-0.01,0.07-0.03,0.1-0.03c0.04,0,0.1,0.06,0.1,0.1v7.65c0,0.81,0.32,0.97,1.48,0.97
		c0.06,0,0.06,0.17,0,0.17c-0.57,0-1.41-0.03-2.23-0.03c-0.78,0-1.65,0.03-2.23,0.03C142.68,21.96,142.68,21.79,142.72,21.79z"/>
	<path class="st0" d="M156.8,19.47c0,1.58-1.19,2.68-2.82,2.68c-1.77,0-2.82-1.3-2.82-3.39c0-2.65,1.67-5.55,4.58-5.7
		c0.07,0,0.1,0.13,0.04,0.14c-2.03,0.66-3.04,2.98-3.04,5.46c0,1.86,0.57,3.18,1.5,3.18c0.71,0,0.97-0.78,0.97-1.99
		c0-1.44-0.36-2.16-1.16-2.16c-0.18,0-0.48,0.03-0.7,0.15c-0.07,0.04-0.15-0.07-0.13-0.13c0.35-0.34,0.83-0.52,1.4-0.52
		C155.95,17.2,156.8,18.14,156.8,19.47z"/>
</g>
</svg>
