<?xml version="1.0" encoding="utf-8"?>
<!-- Generator: Adobe Illustrator 23.1.1, SVG Export Plug-In . SVG Version: 6.00 Build 0)  -->
<svg version="1.1" id="圖層_1" xmlns="http://www.w3.org/2000/svg" xmlns:xlink="http://www.w3.org/1999/xlink" x="0px" y="0px"
	 viewBox="0 0 242.16 31.18" style="enable-background:new 0 0 242.16 31.18;" xml:space="preserve">
<style type="text/css">
	.st0{fill:#B79078;}
</style>
<g>
	<path class="st0" d="M60.49,19.84h-1.57c-1.15,0-0.78,0.41-2.59-2.03l-1.83-2.47l-0.31,0.31v3.05c0,0.81,0.13,0.97,0.99,0.97
		c0.07,0,0.07,0.17,0,0.17c-0.49,0-1.08-0.03-1.78-0.03c-0.67,0-1.3,0.03-1.79,0.03c-0.04,0-0.04-0.17,0-0.17
		c0.85,0,1.02-0.15,1.02-0.97v-6.49c0-0.8-0.15-0.97-0.99-0.97c-0.06,0-0.06-0.17,0-0.17c0.49,0,1.09,0.04,1.77,0.04
		c0.7,0,1.3-0.04,1.78-0.04c0.06,0,0.06,0.17,0,0.17c-0.84,0-0.99,0.2-0.99,0.99v2.97l2.63-2.69c0.69-0.69,0.48-1.27-0.45-1.27
		c-0.06,0-0.06-0.17,0-0.17c0.5,0,0.94,0.04,1.81,0.04c0.9,0,1.33-0.04,1.82-0.04c0.06,0,0.06,0.17,0,0.17
		c-0.85,0-1.98,0.53-2.82,1.36l-1.58,1.61l2.07,2.8c1.82,2.59,2.05,2.65,2.82,2.65C60.55,19.67,60.55,19.84,60.49,19.84z"/>
	<path class="st0" d="M67.34,19.67c0.06,0,0.06,0.17,0,0.17c-0.49,0-1.08-0.03-1.79-0.03c-0.67,0-1.3,0.03-1.79,0.03
		c-0.04,0-0.04-0.17,0-0.17c0.85,0,1.02-0.15,1.02-0.97v-6.49c0-0.8-0.17-0.97-1.02-0.97c-0.04,0-0.04-0.17,0-0.17
		c0.49,0,1.12,0.04,1.79,0.04c0.71,0,1.32-0.04,1.79-0.04c0.06,0,0.06,0.17,0,0.17c-0.85,0-0.99,0.2-0.99,0.99v6.46
		C66.35,19.51,66.48,19.67,67.34,19.67z"/>
	<path class="st0" d="M71.48,13.57c-0.01,0.06-0.15,0.04-0.15-0.01c0.06-0.52,0.2-2.1,0.2-2.79c0-0.08,0.15-0.1,0.15,0
		c0,0.28,0.53,0.31,0.8,0.31c0.8,0.03,1.77,0.04,2.82,0.04c1.3,0,1.98-0.04,2.7-0.04c0.67,0,0.99-0.06,1.09-0.35
		c0.01-0.07,0.17-0.07,0.17,0c-0.07,0.62-0.14,2.35-0.14,2.83c0,0.06-0.14,0.06-0.15,0c-0.28-1.47-1.11-2.16-2.2-2.16
		c-0.56,0-0.67,0.2-0.67,0.84v6.46c0,0.81,0.15,0.97,1.16,0.97c0.06,0,0.06,0.17,0,0.17c-0.53,0-1.18-0.03-1.96-0.03
		c-0.74,0-1.41,0.03-1.95,0.03c-0.06,0-0.06-0.17,0-0.17c0.98,0,1.18-0.15,1.18-0.97v-6.49c0-0.62-0.11-0.81-0.64-0.81
		C72.73,11.4,71.94,12.2,71.48,13.57z"/>
	<path class="st0" d="M90.56,11.3c0.17,0.06,0.2,0.13,0.22,0.32l0.17,1.95c0,0.06-0.13,0.08-0.15,0.01
		c-0.62-1.44-1.69-2.31-3.12-2.31c-1.89,0-2.9,1.53-2.9,3.77c0,2.58,1.33,4.67,3.28,4.67c1.19,0,2.13-0.77,2.87-2.41
		c0.03-0.07,0.17-0.04,0.17,0.01l-0.21,1.91c-0.04,0.22-0.06,0.25-0.22,0.32C89.79,19.86,88.92,20,88.1,20
		c-3.63,0-5.08-2.48-5.08-4.58c0-2.75,2.49-4.5,5.21-4.5C89.01,10.93,90.03,11.07,90.56,11.3z"/>
	<path class="st0" d="M104.76,19.84c-0.49,0-1.19-0.03-1.86-0.03c-0.87,0-1.47,0.03-1.95,0.03c-0.06,0-0.06-0.17,0-0.17
		c1.01,0,1.16-0.15,1.16-0.97v-3.22h-4.52v3.22c0,0.81,0.17,0.97,1.16,0.97c0.04,0,0.04,0.17,0,0.17c-0.55,0-1.15-0.03-2-0.03
		c-0.67,0-1.33,0.03-1.82,0.03c-0.04,0-0.04-0.17,0-0.17c0.94,0,1.11-0.15,1.11-0.97v-6.49c0-0.8-0.17-0.97-1.08-0.97
		c-0.06,0-0.06-0.17,0-0.17c0.49,0,1.12,0.04,1.79,0.04c0.85,0,1.47-0.04,2-0.04c0.04,0,0.04,0.17,0,0.17
		c-0.98,0-1.16,0.2-1.16,0.99v2.84h4.52v-2.84c0-0.8-0.15-0.99-1.16-0.99c-0.06,0-0.06-0.17,0-0.17c0.48,0,1.08,0.04,1.95,0.04
		c0.67,0,1.37-0.04,1.86-0.04c0.06,0,0.06,0.17,0,0.17c-0.94,0-1.09,0.17-1.09,0.97v6.49c0,0.81,0.15,0.97,1.09,0.97
		C104.81,19.67,104.81,19.84,104.76,19.84z"/>
	<path class="st0" d="M115.13,17.64c-0.07,0.55-0.14,1.36-0.14,1.99c0,0.15-0.04,0.21-0.21,0.21h-6.19c-0.06,0-0.06-0.17,0-0.17
		c0.85,0,0.99-0.15,0.99-0.97v-6.49c0-0.8-0.14-0.97-0.99-0.97c-0.06,0-0.06-0.17,0-0.17h5.94c0.11,0,0.14,0.04,0.14,0.13l0.03,1.86
		c0,0.04-0.14,0.07-0.17,0.01c-0.31-1.09-0.99-1.6-2.16-1.6h-0.42c-0.56,0-0.81,0.24-0.81,0.74v2.86h1.16
		c1.11,0,1.68-0.41,1.68-1.06c0-0.06,0.15-0.06,0.15,0c0,0.62-0.01,0.88-0.01,1.26c0,0.48,0.04,0.9,0.04,1.43
		c0,0.04-0.17,0.04-0.17,0c0-0.76-0.59-1.23-1.71-1.23h-1.15v3.17c0,0.55,0.2,0.8,0.64,0.8h0.46c1.46,0,2.31-0.57,2.72-1.83
		C114.98,17.55,115.13,17.59,115.13,17.64z"/>
	<path class="st0" d="M128.68,11.25c-0.74,0-1.2,0.63-1.2,1.62v7.17c0,0.06-0.13,0.07-0.15,0.04l-6.57-7.48v5.45
		c0,0.99,0.43,1.61,1.16,1.61c0.04,0,0.04,0.17,0,0.17c-0.41,0-0.84-0.03-1.36-0.03c-0.56,0-1.11,0.03-1.55,0.03
		c-0.06,0-0.06-0.17,0-0.17c0.81,0,1.33-0.62,1.33-1.61v-5.92c-0.63-0.69-1.02-0.88-1.47-0.88c-0.04,0-0.04-0.17,0-0.17
		c0.36,0,0.78,0.03,1.12,0.03c0.67,0,1.25-0.03,1.54-0.03c0.24,0,0.25,0.2,0.7,0.73l4.85,5.59v-4.52c0-1-0.43-1.62-1.16-1.62
		c-0.04,0-0.04-0.17,0-0.17c0.41,0,0.84,0.04,1.36,0.04c0.5,0,1.01-0.04,1.41-0.04C128.72,11.08,128.72,11.25,128.68,11.25z"/>
	<path class="st0" d="M147.89,19.84h-2.3c-0.24,0-0.59-0.14-1.34-0.69c-0.62,0.5-1.47,0.85-2.68,0.85c-2.03,0-2.93-1.01-2.93-2
		c0-1.01,0.9-1.71,1.86-2.44c-0.17-0.22-0.31-0.45-0.43-0.67c-0.24-0.46-0.41-0.91-0.41-1.51c0-1.48,0.99-2.59,2.69-2.59
		c1.15,0,1.88,0.52,1.88,1.4c0,1.19-1.19,1.91-2.3,2.65c0.73,1.08,1.77,2.1,2.82,2.94c0.08-0.32,0.13-0.69,0.13-1.11
		c0-1.06-0.32-1.55-1.13-1.55c-0.04,0-0.06-0.17,0-0.17l3.33-0.01c0.06,0,0.06,0.17,0,0.17c-0.84,0-0.94,0.25-1.16,1.06
		c-0.15,0.55-0.36,1.26-0.76,1.92c1.3,0.98,2.26,1.46,2.73,1.58C147.96,19.68,147.95,19.84,147.89,19.84z M144,18.95
		c-0.18-0.13-0.38-0.28-0.6-0.46c-0.9-0.71-1.95-1.71-2.7-2.68c-0.38,0.39-0.63,0.84-0.63,1.39c0,1.06,0.97,2.12,2.59,2.12
		C143.21,19.32,143.65,19.19,144,18.95z M141.76,14.54c0.57-0.56,0.99-1.22,0.99-2.06c0-0.84-0.43-1.32-1.04-1.32
		c-0.53,0-0.73,0.36-0.73,1.01C140.99,12.94,141.28,13.76,141.76,14.54z"/>
	<path class="st0" d="M164.26,17.3c0,1.47-1.39,2.59-3.24,2.59c-0.5,0-1.39-0.08-2.02-0.08c-0.67,0-1.29,0.03-1.78,0.03
		c-0.06,0-0.06-0.17,0-0.17c0.78,0,1.01-0.15,1.01-0.97v-6.49c0-0.8-0.21-0.97-0.99-0.97c-0.04,0-0.04-0.17,0-0.17
		c0.49,0,1.09,0.04,1.76,0.04c0.53,0,1.12-0.08,1.72-0.08c1.68,0,2.68,0.62,2.68,1.81c0,0.87-0.57,1.65-1.71,2.07
		C163.27,15.11,164.26,16.04,164.26,17.3z M159.81,12.24v2.66c0.32,0.01,0.53,0.01,0.56,0.01c1.01,0,1.51-0.87,1.51-1.95
		c0-1.06-0.49-1.62-1.36-1.62C159.98,11.35,159.81,11.56,159.81,12.24z M162.62,17.64c0-1.37-0.63-2.34-2.09-2.34
		c-0.14,0-0.41,0-0.73,0.03v3.38c0,0.56,0.11,0.84,0.98,0.84C162.08,19.54,162.62,18.85,162.62,17.64z"/>
	<path class="st0" d="M177.84,19.84c-0.56,0-1.19-0.06-1.75-0.06c-0.64,0-1.04,0.06-1.61,0.06c-0.08,0-0.08-0.17,0-0.17
		c0.77,0,0.87-0.24,0.41-1.15l-1.46-2.87h-2.49l-0.99,2.2c-0.5,1.12,0.08,1.82,1.13,1.82c0.08,0,0.08,0.17,0,0.17
		c-0.56,0-0.94-0.06-1.65-0.06c-0.73,0-1.05,0.06-1.68,0.06c-0.07,0-0.07-0.17,0-0.17c0.76,0,1.11-0.38,1.82-1.96l3.04-6.68
		c0.01-0.06,0.22-0.07,0.25,0l3.5,6.89c0.66,1.33,1.02,1.75,1.48,1.75C177.92,19.67,177.92,19.84,177.84,19.84z M173.23,15.25
		l-1.12-2.21l-0.99,2.21H173.23z"/>
	<path class="st0" d="M190.55,19.84h-2.49c-0.42,0-1.6-1.64-3.18-4.38c-0.11,0.01-0.21,0.01-0.32,0.01c-0.27,0-0.55,0-0.77-0.01
		v3.25c0,0.81,0.13,0.97,0.99,0.97c0.04,0,0.04,0.17,0,0.17c-0.49,0-1.08-0.03-1.79-0.03c-0.67,0-1.29,0.03-1.78,0.03
		c-0.06,0-0.06-0.17,0-0.17c0.85,0,1.01-0.15,1.01-0.97v-6.49c0-0.8-0.14-0.97-0.99-0.97c-0.04,0-0.04-0.17,0-0.17
		c0.49,0,1.09,0.04,1.76,0.04c0.56,0,1.26-0.08,1.88-0.08c1.72,0,2.7,0.66,2.7,1.78c0,0.88-0.6,1.71-1.41,2.18
		c2.17,3.42,3.28,4.67,4.4,4.67C190.59,19.67,190.59,19.84,190.55,19.84z M184.6,15.1c0.98,0,1.36-0.38,1.36-1.75
		c0-1.65-0.56-2.02-1.3-2.02c-0.64,0-0.87,0.27-0.87,0.91v2.8C184.04,15.09,184.37,15.1,184.6,15.1z"/>
</g>
</svg>
